<svg xmlns="http://www.w3.org/2000/svg" viewBox="0 0 21 21" width="21" height="21" version="1.1" focusable="false">
  <g fill="none" fill-rule="evenodd">
    <path d="M19.479,0 L1.521,0 C0.681,0 0,0.681 0,1.521 L0,19.479 C0,20.319 0.681,21 1.521,21 L19.479,21 C20.319,21 21,20.319 21,19.479 L21,1.521 C21,0.681 20.319,0 19.479,0 Z M6.333,18 L3.333,18 L3.333,8 L6.333,8 L6.333,18 Z M4.833,6.667 C3.858,6.667 3.083,5.892 3.083,4.917 C3.083,3.942 3.858,3.167 4.833,3.167 C5.808,3.167 6.583,3.942 6.583,4.917 C6.583,5.892 5.808,6.667 4.833,6.667 Z M18,18 L15,18 L15,12.997 C15,11.667 14.469,10.5 13.227,10.5 C11.719,10.5 11,11.521 11,13.197 L11,18 L8,18 L8,8 L10.827,8 L10.827,9.441 L10.858,9.441 C11.289,8.664 12.562,7.875 14.136,7.875 C17.157,7.875 18,9.479 18,12.45 L18,18 Z" fill="#0077B5"></path>
  </g>
</svg>