<svg width="38" height="38" viewBox="0 0 38 38" fill="none"
  xmlns="http://www.w3.org/2000/svg">
  <g clip-path="url(#clip0_35_5898)">
    <path d=
                  "M36.864 17.7659C36.6905 13.0141 34.688 8.51307 31.2747 5.20259C27.8614 1.89212 23.3013 0.0281839 18.5464 5.08648e-06H18.4566C15.2546 -0.0023727 12.1071 0.828951 9.32389 2.41218C6.54066 3.9954 4.21759 6.27598 2.58326 9.0295C0.948918 11.783 0.0596307 14.9146 0.00289589 18.1161C-0.0538389 21.3176 0.723934 24.4788 2.25968 27.2885L0.628958 37.0467C0.626302 37.0667 0.62794 37.087 0.633764 37.1064C0.639587 37.1257 0.649464 37.1436 0.662734 37.1588C0.676005 37.174 0.692365 37.1862 0.710726 37.1946C0.729086 37.203 0.749026 37.2074 0.769216 37.2075H0.797267L10.4488 35.0606C12.9425 36.2579 15.6735 36.8791 18.4398 36.8783C18.6156 36.8783 18.7914 36.8783 18.9671 36.8783C21.4005 36.8089 23.796 36.2582 26.0154 35.2581C28.2347 34.258 30.2341 32.8282 31.898 31.0513C33.5619 29.2744 34.8574 27.1855 35.7097 24.9053C36.5621 22.6251 36.9544 20.1986 36.864 17.7659ZM18.8755 33.6711C18.7296 33.6711 18.5838 33.6711 18.4398 33.6711C15.9949 33.6742 13.5852 33.0892 11.4138 31.9656L10.9201 31.7075L4.37477 33.2541L5.58285 26.6321L5.30233 26.1571C3.96255 23.8728 3.24091 21.2789 3.20847 18.631C3.17604 15.983 3.83393 13.3722 5.11736 11.0558C6.40078 8.73942 8.26547 6.79729 10.5278 5.42073C12.79 4.04416 15.3719 3.28063 18.019 3.20535C18.1661 3.20535 18.3139 3.20535 18.4622 3.20535C22.4589 3.2172 26.2909 4.79863 29.1327 7.6089C31.9745 10.4192 33.5986 14.2334 33.655 18.2296C33.7114 22.2259 32.1956 26.0844 29.4343 28.9738C26.673 31.8631 22.8871 33.5521 18.8923 33.6767L18.8755 33.6711Z" fill="#25D366" />
    <path d="M12.0314 9.53784C11.8036 9.54228 11.5789 9.59241 11.3708 9.68524C11.1626 9.77807 10.9752 9.91173 10.8196 10.0783C10.3802 10.529 9.1515 11.6136 9.08043 13.8914C9.00937 16.1692 10.6008 18.4227 10.8234 18.7387C11.0459 19.0548 13.866 23.975 18.5113 25.9704C21.2417 27.1467 22.4385 27.3487 23.2146 27.3487C23.5344 27.3487 23.7757 27.315 24.0281 27.3C24.879 27.2477 26.7996 26.264 27.2185 25.1943C27.6374 24.1246 27.6655 23.1896 27.5551 23.0025C27.4448 22.8155 27.1418 22.6809 26.6855 22.4415C26.2292 22.2021 23.9907 21.0053 23.57 20.837C23.4139 20.7643 23.246 20.7206 23.0744 20.7079C22.9626 20.7138 22.8539 20.7468 22.7578 20.8042C22.6616 20.8615 22.581 20.9415 22.5227 21.0371C22.1487 21.5027 21.2903 22.5144 21.0023 22.8062C20.9394 22.8787 20.8619 22.9371 20.7749 22.9777C20.6879 23.0183 20.5934 23.0401 20.4974 23.0418C20.3205 23.0341 20.1475 22.9875 19.9906 22.9053C18.6346 22.3294 17.3984 21.5049 16.3458 20.4742C15.3622 19.5048 14.5278 18.395 13.8698 17.1809C13.6154 16.7097 13.8698 16.4666 14.1016 16.2459C14.3335 16.0252 14.5823 15.7204 14.8216 15.4567C15.0181 15.2314 15.1818 14.9796 15.3079 14.7087C15.3731 14.5829 15.4061 14.4429 15.4038 14.3012C15.4015 14.1595 15.3641 14.0206 15.2948 13.897C15.1844 13.6614 14.3597 11.3444 13.9726 10.4149C13.6584 9.62012 13.2844 9.59394 12.9571 9.56963C12.6879 9.55093 12.3793 9.54158 12.0707 9.53223H12.0314" fill="#25D366" />
  </g>
</svg>
